<svg width="527" height="721" viewBox="0 0 527 721" fill="none" xmlns="http://www.w3.org/2000/svg">
<path d="M88.8796 233.849L34.4883 265.09" stroke="#FD3600" stroke-width="0.35" stroke-miterlimit="10" stroke-linecap="round"/>
<path d="M88.8796 247.559L34.4883 279.025" stroke="#FD3600" stroke-width="0.35" stroke-miterlimit="10" stroke-linecap="round"/>
<path d="M88.8796 261.494L34.4883 292.96" stroke="#FD3600" stroke-width="0.35" stroke-miterlimit="10" stroke-linecap="round"/>
<path d="M88.8796 275.429L34.4883 306.671" stroke="#FD3600" stroke-width="0.35" stroke-miterlimit="10" stroke-linecap="round"/>
<path d="M88.8796 289.364L34.4883 320.606" stroke="#FD3600" stroke-width="0.35" stroke-miterlimit="10" stroke-linecap="round"/>
<path d="M88.8796 303.074L34.4883 334.54" stroke="#FD3600" stroke-width="0.35" stroke-miterlimit="10" stroke-linecap="round"/>
<path d="M88.8796 317.009L34.4883 348.251" stroke="#FD3600" stroke-width="0.35" stroke-miterlimit="10" stroke-linecap="round"/>
<path d="M88.8796 330.944L34.4883 362.186" stroke="#FD3600" stroke-width="0.35" stroke-miterlimit="10" stroke-linecap="round"/>
<path d="M88.8796 344.654L34.4883 376.12" stroke="#FD3600" stroke-width="0.35" stroke-miterlimit="10" stroke-linecap="round"/>
<path d="M88.8796 358.589L34.4883 389.831" stroke="#FD3600" stroke-width="0.35" stroke-miterlimit="10" stroke-linecap="round"/>
<path d="M88.8796 372.524L34.4883 403.766" stroke="#FD3600" stroke-width="0.35" stroke-miterlimit="10" stroke-linecap="round"/>
<path d="M88.8796 386.235L34.4883 417.701" stroke="#FD3600" stroke-width="0.35" stroke-miterlimit="10" stroke-linecap="round"/>
<path d="M88.8796 400.169L34.4883 431.411" stroke="#FD3600" stroke-width="0.35" stroke-miterlimit="10" stroke-linecap="round"/>
<path d="M88.8796 414.104L34.4883 445.346" stroke="#FD3600" stroke-width="0.35" stroke-miterlimit="10" stroke-linecap="round"/>
<path d="M88.8796 427.815L34.4883 459.281" stroke="#FD3600" stroke-width="0.35" stroke-miterlimit="10" stroke-linecap="round"/>
<path d="M88.8796 441.75L34.4883 473.216" stroke="#FD3600" stroke-width="0.35" stroke-miterlimit="10" stroke-linecap="round"/>
<path d="M88.8796 455.685L34.4883 486.926" stroke="#FD3600" stroke-width="0.35" stroke-miterlimit="10" stroke-linecap="round"/>
<path d="M88.8796 469.395L34.4883 500.861" stroke="#FD3600" stroke-width="0.35" stroke-miterlimit="10" stroke-linecap="round"/>
<path d="M88.8796 483.33L34.4883 514.796" stroke="#FD3600" stroke-width="0.35" stroke-miterlimit="10" stroke-linecap="round"/>
<path d="M88.8796 497.265L34.4883 528.506" stroke="#FD3600" stroke-width="0.35" stroke-miterlimit="10" stroke-linecap="round"/>
<path d="M88.8796 510.975L34.4883 542.441" stroke="#FD3600" stroke-width="0.35" stroke-miterlimit="10" stroke-linecap="round"/>
<path d="M88.8796 524.91L34.4883 556.376" stroke="#FD3600" stroke-width="0.35" stroke-miterlimit="10" stroke-linecap="round"/>
<path d="M88.8796 538.845L34.4883 570.087" stroke="#FD3600" stroke-width="0.35" stroke-miterlimit="10" stroke-linecap="round"/>
<path d="M88.8796 552.555L34.4883 584.021" stroke="#FD3600" stroke-width="0.35" stroke-miterlimit="10" stroke-linecap="round"/>
<path d="M88.8796 566.49L34.4883 597.956" stroke="#FD3600" stroke-width="0.35" stroke-miterlimit="10" stroke-linecap="round"/>
<path d="M88.8796 580.425L34.4883 611.667" stroke="#FD3600" stroke-width="0.35" stroke-miterlimit="10" stroke-linecap="round"/>
<path d="M88.8796 594.136L34.4883 625.602" stroke="#FD3600" stroke-width="0.35" stroke-miterlimit="10" stroke-linecap="round"/>
<path d="M88.8796 608.07L34.4883 639.536" stroke="#FD3600" stroke-width="0.35" stroke-miterlimit="10" stroke-linecap="round"/>
<path d="M88.8796 622.005L34.4883 653.247" stroke="#FD3600" stroke-width="0.35" stroke-miterlimit="10" stroke-linecap="round"/>
<path d="M88.8796 635.716L34.4883 667.182" stroke="#FD3600" stroke-width="0.35" stroke-miterlimit="10" stroke-linecap="round"/>
<path d="M88.8796 649.651L34.4883 681.117" stroke="#FD3600" stroke-width="0.35" stroke-miterlimit="10" stroke-linecap="round"/>
<path d="M88.8796 663.586L34.4883 694.827" stroke="#FD3600" stroke-width="0.35" stroke-miterlimit="10" stroke-linecap="round"/>
<path d="M88.8796 677.521L34.4883 708.762" stroke="#FD3600" stroke-width="0.35" stroke-miterlimit="10" stroke-linecap="round"/>
<path d="M471.867 203.507L526.034 234.748" stroke="#FD3600" stroke-width="0.35" stroke-miterlimit="10" stroke-linecap="round"/>
<path d="M471.867 217.441L526.034 248.683" stroke="#FD3600" stroke-width="0.35" stroke-miterlimit="10" stroke-linecap="round"/>
<path d="M471.867 231.376L526.034 262.618" stroke="#FD3600" stroke-width="0.35" stroke-miterlimit="10" stroke-linecap="round"/>
<path d="M471.867 245.312L526.034 276.553" stroke="#FD3600" stroke-width="0.35" stroke-miterlimit="10" stroke-linecap="round"/>
<path d="M471.867 259.022L526.034 290.488" stroke="#FD3600" stroke-width="0.35" stroke-miterlimit="10" stroke-linecap="round"/>
<path d="M471.867 272.957L526.034 304.423" stroke="#FD3600" stroke-width="0.35" stroke-miterlimit="10" stroke-linecap="round"/>
<path d="M471.867 286.892L526.034 318.358" stroke="#FD3600" stroke-width="0.35" stroke-miterlimit="10" stroke-linecap="round"/>
<path d="M471.867 300.827L526.034 332.293" stroke="#FD3600" stroke-width="0.35" stroke-miterlimit="10" stroke-linecap="round"/>
<path d="M471.867 314.762L526.034 346.003" stroke="#FD3600" stroke-width="0.35" stroke-miterlimit="10" stroke-linecap="round"/>
<path d="M471.867 328.697L526.034 359.938" stroke="#FD3600" stroke-width="0.35" stroke-miterlimit="10" stroke-linecap="round"/>
<path d="M471.867 342.632L526.034 373.873" stroke="#FD3600" stroke-width="0.35" stroke-miterlimit="10" stroke-linecap="round"/>
<path d="M471.867 356.567L526.034 387.808" stroke="#FD3600" stroke-width="0.35" stroke-miterlimit="10" stroke-linecap="round"/>
<path d="M471.867 370.277L526.034 401.743" stroke="#FD3600" stroke-width="0.35" stroke-miterlimit="10" stroke-linecap="round"/>
<path d="M471.867 384.212L526.034 415.678" stroke="#FD3600" stroke-width="0.35" stroke-miterlimit="10" stroke-linecap="round"/>
<path d="M471.867 398.147L526.034 429.613" stroke="#FD3600" stroke-width="0.35" stroke-miterlimit="10" stroke-linecap="round"/>
<path d="M471.867 412.082L526.034 443.548" stroke="#FD3600" stroke-width="0.35" stroke-miterlimit="10" stroke-linecap="round"/>
<path d="M471.867 426.017L526.034 457.258" stroke="#FD3600" stroke-width="0.35" stroke-miterlimit="10" stroke-linecap="round"/>
<path d="M471.867 439.952L526.034 471.193" stroke="#FD3600" stroke-width="0.35" stroke-miterlimit="10" stroke-linecap="round"/>
<path d="M471.867 453.887L526.034 485.128" stroke="#FD3600" stroke-width="0.35" stroke-miterlimit="10" stroke-linecap="round"/>
<path d="M471.867 467.822L526.034 499.063" stroke="#FD3600" stroke-width="0.35" stroke-miterlimit="10" stroke-linecap="round"/>
<path d="M471.867 481.532L526.034 512.998" stroke="#FD3600" stroke-width="0.35" stroke-miterlimit="10" stroke-linecap="round"/>
<path d="M471.867 495.467L526.034 526.933" stroke="#FD3600" stroke-width="0.35" stroke-miterlimit="10" stroke-linecap="round"/>
<path d="M471.867 509.402L526.034 540.868" stroke="#FD3600" stroke-width="0.35" stroke-miterlimit="10" stroke-linecap="round"/>
<path d="M471.867 523.337L526.034 554.803" stroke="#FD3600" stroke-width="0.35" stroke-miterlimit="10" stroke-linecap="round"/>
<path d="M471.867 537.272L526.034 568.513" stroke="#FD3600" stroke-width="0.35" stroke-miterlimit="10" stroke-linecap="round"/>
<path d="M471.867 551.207L526.034 582.448" stroke="#FD3600" stroke-width="0.35" stroke-miterlimit="10" stroke-linecap="round"/>
<path d="M471.867 565.142L526.034 596.383" stroke="#FD3600" stroke-width="0.35" stroke-miterlimit="10" stroke-linecap="round"/>
<path d="M471.867 579.077L526.034 610.318" stroke="#FD3600" stroke-width="0.35" stroke-miterlimit="10" stroke-linecap="round"/>
<path d="M471.867 592.787L526.034 624.253" stroke="#FD3600" stroke-width="0.35" stroke-miterlimit="10" stroke-linecap="round"/>
<path d="M471.867 606.722L526.034 638.188" stroke="#FD3600" stroke-width="0.35" stroke-miterlimit="10" stroke-linecap="round"/>
<path d="M471.867 620.657L526.034 652.123" stroke="#FD3600" stroke-width="0.35" stroke-miterlimit="10" stroke-linecap="round"/>
<path d="M471.867 634.592L526.034 666.058" stroke="#FD3600" stroke-width="0.35" stroke-miterlimit="10" stroke-linecap="round"/>
<path d="M471.867 648.527L526.034 679.768" stroke="#FD3600" stroke-width="0.35" stroke-miterlimit="10" stroke-linecap="round"/>
<path d="M471.867 662.462L526.034 693.703" stroke="#FD3600" stroke-width="0.35" stroke-miterlimit="10" stroke-linecap="round"/>
<path d="M471.867 676.397L526.034 707.638" stroke="#FD3600" stroke-width="0.35" stroke-miterlimit="10" stroke-linecap="round"/>
<path d="M197.213 166.871L163.725 186.2" stroke="#FD3600" stroke-width="0.35" stroke-miterlimit="10" stroke-linecap="round"/>
<path d="M197.213 180.806L163.725 200.135" stroke="#FD3600" stroke-width="0.35" stroke-miterlimit="10" stroke-linecap="round"/>
<path d="M197.213 194.517L163.725 213.846" stroke="#FD3600" stroke-width="0.35" stroke-miterlimit="10" stroke-linecap="round"/>
<path d="M197.213 208.451L163.725 227.78" stroke="#FD3600" stroke-width="0.35" stroke-miterlimit="10" stroke-linecap="round"/>
<path d="M197.213 222.386L163.725 241.715" stroke="#FD3600" stroke-width="0.35" stroke-miterlimit="10" stroke-linecap="round"/>
<path d="M197.213 236.097L163.725 255.426" stroke="#FD3600" stroke-width="0.35" stroke-miterlimit="10" stroke-linecap="round"/>
<path d="M197.213 250.032L163.725 269.361" stroke="#FD3600" stroke-width="0.35" stroke-miterlimit="10" stroke-linecap="round"/>
<path d="M197.213 263.742L163.725 283.296" stroke="#FD3600" stroke-width="0.35" stroke-miterlimit="10" stroke-linecap="round"/>
<path d="M197.213 277.677L163.725 297.006" stroke="#FD3600" stroke-width="0.35" stroke-miterlimit="10" stroke-linecap="round"/>
<path d="M197.213 291.612L163.725 310.941" stroke="#FD3600" stroke-width="0.35" stroke-miterlimit="10" stroke-linecap="round"/>
<path d="M197.213 305.322L163.725 324.651" stroke="#FD3600" stroke-width="0.35" stroke-miterlimit="10" stroke-linecap="round"/>
<path d="M197.213 319.257L163.725 338.586" stroke="#FD3600" stroke-width="0.35" stroke-miterlimit="10" stroke-linecap="round"/>
<path d="M197.213 333.192L163.725 352.521" stroke="#FD3600" stroke-width="0.35" stroke-miterlimit="10" stroke-linecap="round"/>
<path d="M197.213 346.902L163.725 366.231" stroke="#FD3600" stroke-width="0.35" stroke-miterlimit="10" stroke-linecap="round"/>
<path d="M197.213 360.837L163.725 380.166" stroke="#FD3600" stroke-width="0.35" stroke-miterlimit="10" stroke-linecap="round"/>
<path d="M197.213 374.772L163.725 394.101" stroke="#FD3600" stroke-width="0.35" stroke-miterlimit="10" stroke-linecap="round"/>
<path d="M197.213 388.482L163.725 407.812" stroke="#FD3600" stroke-width="0.35" stroke-miterlimit="10" stroke-linecap="round"/>
<path d="M197.213 402.417L163.725 421.746" stroke="#FD3600" stroke-width="0.35" stroke-miterlimit="10" stroke-linecap="round"/>
<path d="M197.213 416.127L163.725 435.681" stroke="#FD3600" stroke-width="0.35" stroke-miterlimit="10" stroke-linecap="round"/>
<path d="M197.213 430.062L163.725 449.392" stroke="#FD3600" stroke-width="0.35" stroke-miterlimit="10" stroke-linecap="round"/>
<path d="M197.213 443.998L163.725 463.327" stroke="#FD3600" stroke-width="0.35" stroke-miterlimit="10" stroke-linecap="round"/>
<path d="M197.213 457.708L163.725 477.037" stroke="#FD3600" stroke-width="0.35" stroke-miterlimit="10" stroke-linecap="round"/>
<path d="M197.213 471.643L163.725 490.972" stroke="#FD3600" stroke-width="0.35" stroke-miterlimit="10" stroke-linecap="round"/>
<path d="M197.213 485.578L163.725 504.907" stroke="#FD3600" stroke-width="0.35" stroke-miterlimit="10" stroke-linecap="round"/>
<path d="M197.213 499.288L163.725 518.617" stroke="#FD3600" stroke-width="0.35" stroke-miterlimit="10" stroke-linecap="round"/>
<path d="M197.213 513.223L163.725 532.552" stroke="#FD3600" stroke-width="0.35" stroke-miterlimit="10" stroke-linecap="round"/>
<path d="M197.213 527.158L163.725 546.487" stroke="#FD3600" stroke-width="0.35" stroke-miterlimit="10" stroke-linecap="round"/>
<path d="M197.213 540.868L163.725 560.197" stroke="#FD3600" stroke-width="0.35" stroke-miterlimit="10" stroke-linecap="round"/>
<path d="M197.213 554.803L163.725 574.132" stroke="#FD3600" stroke-width="0.35" stroke-miterlimit="10" stroke-linecap="round"/>
<path d="M197.213 568.513L163.725 588.067" stroke="#FD3600" stroke-width="0.35" stroke-miterlimit="10" stroke-linecap="round"/>
<path d="M197.213 582.448L163.725 601.777" stroke="#FD3600" stroke-width="0.35" stroke-miterlimit="10" stroke-linecap="round"/>
<path d="M197.213 596.383L163.725 615.712" stroke="#FD3600" stroke-width="0.35" stroke-miterlimit="10" stroke-linecap="round"/>
<path d="M197.213 610.093L163.725 629.422" stroke="#FD3600" stroke-width="0.35" stroke-miterlimit="10" stroke-linecap="round"/>
<path d="M197.213 624.028L163.725 643.357" stroke="#FD3600" stroke-width="0.35" stroke-miterlimit="10" stroke-linecap="round"/>
<path d="M197.213 637.963L163.725 657.293" stroke="#FD3600" stroke-width="0.35" stroke-miterlimit="10" stroke-linecap="round"/>
<path d="M197.213 651.674L163.725 671.003" stroke="#FD3600" stroke-width="0.35" stroke-miterlimit="10" stroke-linecap="round"/>
<path d="M197.213 665.608L163.725 684.938" stroke="#FD3600" stroke-width="0.35" stroke-miterlimit="10" stroke-linecap="round"/>
<path d="M197.213 679.319L163.725 698.873" stroke="#FD3600" stroke-width="0.35" stroke-miterlimit="10" stroke-linecap="round"/>
<path d="M197.213 693.254L163.725 712.583" stroke="#FD3600" stroke-width="0.35" stroke-miterlimit="10" stroke-linecap="round"/>
<path d="M386.235 350.274L275.879 286.442" stroke="#FD3600" stroke-width="0.35" stroke-miterlimit="10" stroke-linecap="round"/>
<path d="M386.235 363.984L275.879 300.377" stroke="#FD3600" stroke-width="0.35" stroke-miterlimit="10" stroke-linecap="round"/>
<path d="M386.235 377.918L275.879 314.312" stroke="#FD3600" stroke-width="0.35" stroke-miterlimit="10" stroke-linecap="round"/>
<path d="M386.235 391.854L275.879 328.022" stroke="#FD3600" stroke-width="0.35" stroke-miterlimit="10" stroke-linecap="round"/>
<path d="M386.235 405.564L275.879 341.958" stroke="#FD3600" stroke-width="0.35" stroke-miterlimit="10" stroke-linecap="round"/>
<path d="M386.235 419.499L275.879 355.893" stroke="#FD3600" stroke-width="0.35" stroke-miterlimit="10" stroke-linecap="round"/>
<path d="M386.235 433.434L275.879 369.603" stroke="#FD3600" stroke-width="0.35" stroke-miterlimit="10" stroke-linecap="round"/>
<path d="M386.235 447.369L275.879 383.538" stroke="#FD3600" stroke-width="0.35" stroke-miterlimit="10" stroke-linecap="round"/>
<path d="M386.235 461.079L275.879 397.473" stroke="#FD3600" stroke-width="0.35" stroke-miterlimit="10" stroke-linecap="round"/>
<path d="M386.235 475.014L275.879 411.408" stroke="#FD3600" stroke-width="0.35" stroke-miterlimit="10" stroke-linecap="round"/>
<path d="M386.235 488.949L275.879 425.118" stroke="#FD3600" stroke-width="0.35" stroke-miterlimit="10" stroke-linecap="round"/>
<path d="M386.235 502.884L275.879 439.053" stroke="#FD3600" stroke-width="0.35" stroke-miterlimit="10" stroke-linecap="round"/>
<path d="M386.235 516.594L275.879 452.988" stroke="#FD3600" stroke-width="0.35" stroke-miterlimit="10" stroke-linecap="round"/>
<path d="M386.235 530.529L275.879 466.923" stroke="#FD3600" stroke-width="0.35" stroke-miterlimit="10" stroke-linecap="round"/>
<path d="M386.235 544.464L275.879 480.633" stroke="#FD3600" stroke-width="0.35" stroke-miterlimit="10" stroke-linecap="round"/>
<path d="M386.235 558.399L275.879 494.568" stroke="#FD3600" stroke-width="0.35" stroke-miterlimit="10" stroke-linecap="round"/>
<path d="M386.235 572.109L275.879 508.503" stroke="#FD3600" stroke-width="0.35" stroke-miterlimit="10" stroke-linecap="round"/>
<path d="M386.235 586.044L275.879 522.438" stroke="#FD3600" stroke-width="0.35" stroke-miterlimit="10" stroke-linecap="round"/>
<path d="M386.235 599.979L275.879 536.148" stroke="#FD3600" stroke-width="0.35" stroke-miterlimit="10" stroke-linecap="round"/>
<path d="M386.235 613.689L275.879 550.083" stroke="#FD3600" stroke-width="0.35" stroke-miterlimit="10" stroke-linecap="round"/>
<path d="M386.235 627.625L275.879 564.018" stroke="#FD3600" stroke-width="0.35" stroke-miterlimit="10" stroke-linecap="round"/>
<path d="M386.235 641.56L275.879 577.729" stroke="#FD3600" stroke-width="0.35" stroke-miterlimit="10" stroke-linecap="round"/>
<path d="M386.235 655.494L275.879 591.663" stroke="#FD3600" stroke-width="0.35" stroke-miterlimit="10" stroke-linecap="round"/>
<path d="M386.235 669.205L275.879 605.598" stroke="#FD3600" stroke-width="0.35" stroke-miterlimit="10" stroke-linecap="round"/>
<path d="M386.235 683.14L275.879 619.533" stroke="#FD3600" stroke-width="0.35" stroke-miterlimit="10" stroke-linecap="round"/>
<path d="M386.235 697.075L275.879 633.244" stroke="#FD3600" stroke-width="0.35" stroke-miterlimit="10" stroke-linecap="round"/>
<path d="M386.235 711.009L275.879 647.178" stroke="#FD3600" stroke-width="0.35" stroke-miterlimit="10" stroke-linecap="round"/>
<path d="M264.416 103.04L350.049 53.5933" stroke="#FD3600" stroke-width="0.35" stroke-miterlimit="10" stroke-linecap="round"/>
<path d="M264.416 116.975L350.049 67.5283" stroke="#FD3600" stroke-width="0.35" stroke-miterlimit="10" stroke-linecap="round"/>
<path d="M264.416 130.91L350.049 81.4634" stroke="#FD3600" stroke-width="0.35" stroke-miterlimit="10" stroke-linecap="round"/>
<path d="M264.416 144.845L350.049 95.3984" stroke="#FD3600" stroke-width="0.35" stroke-miterlimit="10" stroke-linecap="round"/>
<path d="M264.416 158.78L350.049 109.333" stroke="#FD3600" stroke-width="0.35" stroke-miterlimit="10" stroke-linecap="round"/>
<path d="M264.416 172.715L350.049 123.268" stroke="#FD3600" stroke-width="0.35" stroke-miterlimit="10" stroke-linecap="round"/>
<path d="M264.416 186.425L350.049 137.203" stroke="#FD3600" stroke-width="0.35" stroke-miterlimit="10" stroke-linecap="round"/>
<path d="M264.416 200.36L350.049 151.138" stroke="#FD3600" stroke-width="0.35" stroke-miterlimit="10" stroke-linecap="round"/>
<path d="M264.416 214.295L350.049 165.073" stroke="#FD3600" stroke-width="0.35" stroke-miterlimit="10" stroke-linecap="round"/>
<path d="M264.416 228.23L350.049 178.783" stroke="#FD3600" stroke-width="0.35" stroke-miterlimit="10" stroke-linecap="round"/>
<path d="M264.416 242.165L350.049 192.718" stroke="#FD3600" stroke-width="0.35" stroke-miterlimit="10" stroke-linecap="round"/>
<path d="M264.416 256.1L350.049 206.653" stroke="#FD3600" stroke-width="0.35" stroke-miterlimit="10" stroke-linecap="round"/>
<path d="M264.416 270.035L350.049 220.588" stroke="#FD3600" stroke-width="0.35" stroke-miterlimit="10" stroke-linecap="round"/>
<path d="M279.924 274.98L350.048 234.523" stroke="#FD3600" stroke-width="0.35" stroke-miterlimit="10" stroke-linecap="round"/>
<path d="M292.061 281.947L350.048 248.458" stroke="#FD3600" stroke-width="0.35" stroke-miterlimit="10" stroke-linecap="round"/>
<path d="M304.197 288.914L350.048 262.393" stroke="#FD3600" stroke-width="0.35" stroke-miterlimit="10" stroke-linecap="round"/>
<path d="M316.109 295.882L350.048 276.328" stroke="#FD3600" stroke-width="0.35" stroke-miterlimit="10" stroke-linecap="round"/>
<path d="M328.246 302.85L350.048 290.263" stroke="#FD3600" stroke-width="0.35" stroke-miterlimit="10" stroke-linecap="round"/>
<path d="M340.385 309.817L350.049 304.198" stroke="#FD3600" stroke-width="0.35" stroke-miterlimit="10" stroke-linecap="round"/>
<path d="M404.215 149.34L458.606 117.874" stroke="#FD3600" stroke-width="0.35" stroke-miterlimit="10" stroke-linecap="round"/>
<path d="M458.607 117.874L485.803 133.607" stroke="#FD3600" stroke-width="0.35" stroke-miterlimit="10" stroke-linecap="round"/>
<path d="M458.607 117.874V197.213" stroke="#FD3600" stroke-width="0.35" stroke-miterlimit="10" stroke-linecap="round"/>
<path d="M485.803 133.607V197.663" stroke="#FD3600" stroke-width="0.35" stroke-miterlimit="10" stroke-linecap="round"/>
<path d="M350.049 39.6582L404.215 70.8995" stroke="#FD3600" stroke-width="0.35" stroke-miterlimit="10" stroke-linecap="round"/>
<path d="M264.416 89.1049L350.049 39.6582" stroke="#FD3600" stroke-width="0.35" stroke-miterlimit="10" stroke-linecap="round"/>
<path d="M350.049 39.6582V315.436" stroke="#FD3600" stroke-width="0.35" stroke-miterlimit="10" stroke-linecap="round"/>
<path d="M264.416 89.105V279.25" stroke="#FD3600" stroke-width="0.35" stroke-miterlimit="10" stroke-linecap="round"/>
<path d="M404.215 70.8999V228.68" stroke="#FD3600" stroke-width="0.35" stroke-miterlimit="10" stroke-linecap="round"/>
<path d="M264.416 234.298V279.25" stroke="#FD3600" stroke-width="0.35" stroke-miterlimit="10" stroke-linecap="round"/>
<path d="M88.8796 219.914L34.4883 251.38" stroke="#FD3600" stroke-width="0.35" stroke-miterlimit="10" stroke-linecap="round"/>
<path d="M163.725 263.292L88.8809 219.914" stroke="#FD3600" stroke-width="0.35" stroke-miterlimit="10" stroke-linecap="round"/>
<path d="M88.8809 219.914V710.111" stroke="#FD3600" stroke-width="0.35" stroke-miterlimit="10" stroke-linecap="round"/>
<path d="M34.4883 251.38V710.11" stroke="#FD3600" stroke-width="0.35" stroke-miterlimit="10" stroke-linecap="round"/>
<path d="M471.867 189.572L526.034 221.038" stroke="#FD3600" stroke-width="0.35" stroke-miterlimit="10" stroke-linecap="round"/>
<path d="M376.121 244.862L471.868 189.572" stroke="#FD3600" stroke-width="0.35" stroke-miterlimit="10" stroke-linecap="round"/>
<path d="M471.867 189.572V717.078" stroke="#FD3600" stroke-width="0.35" stroke-miterlimit="10" stroke-linecap="round"/>
<path d="M526.035 221.038V717.078" stroke="#FD3600" stroke-width="0.35" stroke-miterlimit="10" stroke-linecap="round"/>
<path d="M264.415 191.819L197.213 152.936" stroke="#FD3600" stroke-width="0.35" stroke-miterlimit="10" stroke-linecap="round"/>
<path d="M197.213 152.936L163.725 172.49" stroke="#FD3600" stroke-width="0.35" stroke-miterlimit="10" stroke-linecap="round"/>
<path d="M197.213 152.936V716.404" stroke="#FD3600" stroke-width="0.35" stroke-miterlimit="10" stroke-linecap="round"/>
<path d="M264.416 191.819V279.25" stroke="#FD3600" stroke-width="0.35" stroke-miterlimit="10" stroke-linecap="round"/>
<path d="M163.725 172.49V716.404" stroke="#FD3600" stroke-width="0.35" stroke-miterlimit="10" stroke-linecap="round"/>
<path d="M275.879 272.507L234.973 296.107" stroke="#FD3600" stroke-width="0.35" stroke-miterlimit="10" stroke-linecap="round"/>
<path d="M386.235 336.339L275.879 272.507" stroke="#FD3600" stroke-width="0.35" stroke-miterlimit="10" stroke-linecap="round"/>
<path d="M275.879 272.507V720" stroke="#FD3600" stroke-width="0.35" stroke-miterlimit="10" stroke-linecap="round"/>
<path d="M386.234 336.338V720" stroke="#FD3600" stroke-width="0.35" stroke-miterlimit="10" stroke-linecap="round"/>
<path d="M376.121 244.862V330.495" stroke="#FD3600" stroke-width="0.35" stroke-miterlimit="10" stroke-linecap="round"/>
<path d="M234.973 296.107V713.257" stroke="#FD3600" stroke-width="0.35" stroke-miterlimit="10" stroke-linecap="round"/>
<path d="M34.4889 251.38L1 270.709" stroke="#FD3600" stroke-width="0.35" stroke-miterlimit="10" stroke-linecap="round"/>
<path d="M230.927 133.607L197.213 152.936" stroke="#FD3600" stroke-width="0.35" stroke-miterlimit="10" stroke-linecap="round"/>
<path d="M163.725 172.49L130.236 191.819" stroke="#FD3600" stroke-width="0.35" stroke-miterlimit="10" stroke-linecap="round"/>
<path d="M485.803 133.607L519.292 152.936" stroke="#FD3600" stroke-width="0.35" stroke-miterlimit="10" stroke-linecap="round"/>
<path d="M458.607 117.874V79.2158" stroke="#FD3600" stroke-width="0.35" stroke-miterlimit="10" stroke-linecap="round"/>
<path d="M485.803 133.607V94.9487" stroke="#FD3600" stroke-width="0.35" stroke-miterlimit="10" stroke-linecap="round"/>
<path d="M383.538 20.5537L350.049 39.8829" stroke="#FD3600" stroke-width="0.35" stroke-miterlimit="10" stroke-linecap="round"/>
<path d="M350.049 39.6583V1" stroke="#FD3600" stroke-width="0.35" stroke-miterlimit="10" stroke-linecap="round"/>
<path d="M34.4883 251.38V212.497" stroke="#FD3600" stroke-width="0.35" stroke-miterlimit="10" stroke-linecap="round"/>
<path d="M88.8809 219.914V181.256" stroke="#FD3600" stroke-width="0.35" stroke-miterlimit="10" stroke-linecap="round"/>
<path d="M264.416 89.1051V50.4468" stroke="#FD3600" stroke-width="0.35" stroke-miterlimit="10" stroke-linecap="round"/>
<path d="M163.725 172.49V133.607" stroke="#FD3600" stroke-width="0.35" stroke-miterlimit="10" stroke-linecap="round"/>
<path d="M197.213 152.936V114.278" stroke="#FD3600" stroke-width="0.35" stroke-miterlimit="10" stroke-linecap="round"/>
</svg>
